<?xml version="1.0" encoding="utf-8"?>
<!-- Generator: Adobe Illustrator 16.0.0, SVG Export Plug-In . SVG Version: 6.00 Build 0)  -->
<!DOCTYPE svg PUBLIC "-//W3C//DTD SVG 1.1//EN" "http://www.w3.org/Graphics/SVG/1.1/DTD/svg11.dtd">
<svg version="1.1" id="Layer_1" xmlns="http://www.w3.org/2000/svg" xmlns:xlink="http://www.w3.org/1999/xlink" x="0px" y="0px"
	 width="701.7px" height="60.4px" viewBox="0 0 701.7 60.4" style="enable-background:new 0 0 701.7 60.4;" xml:space="preserve">
<style type="text/css">
<![CDATA[
	.st0{fill:#EA8860;}
	.st1{fill:#646465;}
	.st2{fill:none;}
]]>
</style>
<rect x="-201.3" y="-56.7" class="st2" width="1113" height="170"/>
<g>
	<polygon class="st1" points="89.7,0.9 65.2,30.8 89.5,59.9 100.6,59.9 76,30.5 100,0.9 89.7,0.9 	"/>
	<path class="st1" d="M64.9,30.2C64.9,13.5,51.4,0,34.7,0c-11,0-20.5,5.8-25.8,14.6l4.9,6c3.7-7.9,11.6-13.4,20.9-13.4
		c12.7,0,23.1,10.3,23.1,23.1c0,12.7-10.3,23.1-23.1,23.1c-9.2,0-17.2-5.4-20.9-13.3l-4.9,5.9c5.3,8.7,14.9,14.5,25.8,14.5
		C51.4,60.4,64.9,46.9,64.9,30.2L64.9,30.2z"/>
	<path class="st1" d="M145.5,19.6c0-0.3,0-0.6,0-0.9c0-0.3,0-0.6,0-0.9c0-12.4-8.5-16.9-19.4-16.9h-25.5v29.7h7.9V6.9h0v0h16.5
		c4.4,0,11.9,1.1,12.1,11.9c-0.2,10.4-7.2,11.8-11.7,11.9l0,0h-11.2l24.3,29h11.1l-19.6-23.5C139.1,35.2,145.5,30.4,145.5,19.6
		L145.5,19.6z"/>
	<path class="st0" d="M5.8,36.2c3.2,0,5.8-2.6,5.8-5.8S9,24.6,5.8,24.6c-3.2,0-5.8,2.6-5.8,5.8S2.6,36.2,5.8,36.2L5.8,36.2z"/>
</g>
<g>
	<path class="st1" d="M216.2,41.6h-2.8V19.4h3.2c6.9,0,9,2.4,9,6.4c0,4.7-3.6,6.5-7.8,6.5h-1.6V41.6z M216.2,29.8h0.9
		c2.8,0,5.9-0.5,5.9-4.1c0-3.5-3.3-3.9-6.1-3.9h-0.7V29.8z"/>
	<path class="st1" d="M231,19.4h12V22h-9.2v6.2h8.9v2.5h-8.9v8.4h9.2v2.5h-12V19.4z"/>
	<path class="st1" d="M250.6,18.1l16.7,17.5V19.2h2.8v23.2l-16.7-17.5v16.6h-2.8V18.1z"/>
	<path class="st0" d="M302.4,19.4h3.6l-10,10l10.2,12.3h-3.8l-8.4-10.4l-1.1,1.1v9.3h-2.8V19.4h2.8V29L302.4,19.4z"/>
	<path class="st0" d="M310.8,18.2l16.7,17.5V19.3h2.8v23.2l-16.7-17.5v16.6h-2.8V18.2z"/>
	<path class="st0" d="M370.3,35.4l6.3-16.4l6.3,16.4l6.2-16h3l-9.3,23.2l-6.3-16.4l-6.3,16.4L361,19.4h3L370.3,35.4z"/>
	<path class="st0" d="M399.4,39.2h6.8v2.5h-9.6V19.4h2.8V39.2z"/>
	<path class="st0" d="M412,19.4h12V22h-9.2v6.2h8.9v2.5h-8.9v8.4h9.2v2.5h-12V19.4z"/>
	<path class="st0" d="M430.5,19.2h4.6c6.8,0,12.5,3.6,12.5,11c0,7.6-5.6,11.3-12.6,11.3h-4.5V19.2z M433.2,39h1
		c5.7,0,10.6-2.1,10.6-8.6c0-6.5-4.9-8.6-10.6-8.6h-1V39z"/>
	<path class="st0" d="M472.9,30.3v0.9c0,6.1-4.3,10.8-10.6,10.8c-6.2,0-11.3-5.4-11.3-11.6c0-6.4,5.1-11.7,11.6-11.7
		c3.5,0,6.9,1.6,9.1,4.3l-2,1.9c-1.6-2.2-4.3-3.6-7-3.6c-5,0-8.9,4.1-8.9,9.1c0,4.7,3.8,9.1,8.7,9.1c3.5,0,7.2-3,7.3-6.6H464v-2.5
		H472.9z"/>
	<path class="st0" d="M478.2,19.2h12v2.5H481V28h8.9v2.5H481V39h9.2v2.5h-12V19.2z"/>
	<path class="st1" d="M522.4,41.7H519l-6.6-9.4h-1.2v9.4h-2.8V19.4h3.4c2,0,4.1,0,5.9,1c1.9,1.1,2.9,3.2,2.9,5.3
		c0,3.2-2.1,5.9-5.4,6.2L522.4,41.7z M511.3,30h0.9c2.8,0,5.9-0.5,5.9-4.1c0-3.5-3.3-4-6.1-4h-0.7V30z"/>
	<path class="st1" d="M528.1,19.4h12V22h-9.2v6.2h8.9v2.5h-8.9v8.4h9.2v2.5h-12V19.4z"/>
	<path class="st1" d="M550.5,41.7h-2.8V19.4h3.2c6.9,0,9,2.4,9,6.4c0,4.7-3.6,6.5-7.8,6.5h-1.6V41.7z M550.5,29.9h0.9
		c2.8,0,5.9-0.5,5.9-4.1c0-3.5-3.3-3.9-6.1-3.9h-0.7V29.9z"/>
	<path class="st1" d="M601.9,23.7c-0.8-1.4-1.9-2.1-3.6-2.1c-1.8,0-3.7,1.2-3.7,3.2c0,1.7,1.7,2.7,3.1,3.2l1.6,0.6
		c3.2,1.2,5.5,3,5.5,6.7c0,4.1-3.1,7-7.1,7c-3.6,0-6.4-2.7-6.9-6.2l2.8-0.6c0,2.5,1.9,4.2,4.3,4.2c2.4,0,4.1-2,4.1-4.3
		c0-2.4-1.9-3.4-3.8-4.2l-1.5-0.7c-2.5-1.1-4.9-2.5-4.9-5.6c0-3.6,3.2-5.8,6.6-5.8c2.5,0,4.5,1.2,5.7,3.4L601.9,23.7z"/>
	<path class="st1" d="M614.7,41.7h-2.8V19.4h2.8V41.7z"/>
	<path class="st1" d="M629.8,41.7H627V22h-5.3v-2.5h13.4V22h-5.3V41.7z"/>
	<path class="st1" d="M661.7,30.5c0,6.6-5.2,11.6-11.7,11.6c-6.4,0-11.7-5-11.7-11.6c0-6.4,5.3-11.6,11.7-11.6
		C656.4,18.9,661.7,24.1,661.7,30.5z M658.9,30.5c0-4.9-3.7-9-8.9-9c-5.2,0-8.9,4.1-8.9,9c0,5.1,4.1,9,8.9,9
		C654.8,39.5,658.9,35.6,658.9,30.5z"/>
	<path class="st1" d="M586.5,30.5c0,6.6-5.2,11.6-11.7,11.6s-11.7-5-11.7-11.6c0-6.4,5.3-11.6,11.7-11.6
		C581.2,18.8,586.5,24.1,586.5,30.5z M583.7,30.5c0-4.9-3.7-9-8.9-9s-8.9,4.1-8.9,9c0,5.1,4.1,9,8.9,9
		C579.7,39.5,583.7,35.5,583.7,30.5z"/>
	<path class="st1" d="M680.9,41.7h-3.4l-6.6-9.4h-1.2v9.4h-2.8V19.4h3.4c2,0,4.1,0,5.9,1c1.9,1.1,2.9,3.2,2.9,5.3
		c0,3.2-2.1,5.9-5.4,6.2L680.9,41.7z M669.8,30h0.9c2.8,0,5.9-0.5,5.9-4.1c0-3.5-3.3-4-6.1-4h-0.7V30z"/>
	<path class="st1" d="M684.3,19.4h3.2L693,29l5.5-9.5h3.2L694.4,32v9.7h-2.8V32L684.3,19.4z"/>
	<path class="st0" d="M358.5,30.5c0,6.6-5.2,11.6-11.7,11.6c-6.4,0-11.7-5-11.7-11.6c0-6.4,5.3-11.6,11.7-11.6
		C353.2,18.8,358.5,24.1,358.5,30.5z M355.7,30.5c0-4.9-3.7-9-8.9-9c-5.2,0-8.9,4.1-8.9,9c0,5.1,4.1,9,8.9,9
		C351.6,39.5,355.7,35.6,355.7,30.5z"/>
	<path class="st1" d="M208,30.5c0,6.6-5.2,11.6-11.7,11.6c-6.4,0-11.7-5-11.7-11.6c0-6.4,5.3-11.6,11.7-11.6
		C202.7,18.9,208,24.1,208,30.5z M205.2,30.5c0-4.9-3.7-9-8.9-9c-5.2,0-8.9,4.1-8.9,9c0,5.1,4.1,9,8.9,9
		C201.2,39.5,205.2,35.6,205.2,30.5z"/>
</g>
</svg>
